<svg width="165" height="19" viewBox="0 0 165 19" fill="none" xmlns="http://www.w3.org/2000/svg">
<g clip-path="url(#clip0_915_794)">
<path d="M56.6783 0.339412H63.0129C68.2488 0.339412 72.4853 4.43751 72.4853 9.54002C72.4853 14.6425 68.2488 18.7406 63.0129 18.7406H56.6783V0.339412ZM63.0129 14.9641C66.1504 14.9641 68.2686 12.4931 68.2686 9.54002C68.2686 6.587 66.1504 4.11608 63.0129 4.11608H60.8347V14.944H63.0129V14.9641ZM111.893 11.2878V0.339412H115.99V11.3481C115.99 13.5176 117.388 14.8435 119.427 14.8435C121.465 14.8435 122.864 13.5176 122.864 11.3481V0.339412H126.98V11.2878C126.98 15.8076 123.823 18.7607 119.447 18.7607C115.03 18.7808 111.893 15.8076 111.893 11.2878ZM35.6956 11.2878V0.339412H39.7922V11.3481C39.7922 13.5176 41.191 14.8435 43.2294 14.8435C45.2675 14.8435 46.6666 13.5176 46.6666 11.3481V0.339412H50.7632V11.2878C50.7632 15.8076 47.6057 18.7607 43.2294 18.7607C38.833 18.7808 35.6956 15.8076 35.6956 11.2878ZM152.879 0.339412H164.77V4.15627H156.996V7.57134H163.391V11.5089H156.996V14.9239H164.77V18.7406H152.879V0.339412ZM79.02 0.359511H74.0241L81.3581 10.665V18.7406H85.4548V9.64049L79.02 0.359511ZM133.116 18.7607V0.359511H141.808C143.327 0.359511 144.606 0.861717 145.485 1.80589C146.265 2.62953 146.684 3.75451 146.684 4.95982C146.684 7.18967 145.745 8.59588 144.346 9.31905C145.805 9.90163 147.024 11.5488 147.024 13.8592C147.024 16.1091 145.745 18.7607 142.128 18.7607H133.116ZM136.952 15.1246H140.949C141.988 15.1246 142.867 14.3614 142.867 13.1963C142.867 12.0311 141.948 11.2275 140.949 11.2275H136.952V15.1246ZM136.952 7.6316H140.789C141.688 7.6316 142.528 6.86823 142.528 5.80353C142.528 4.75892 141.648 3.99554 140.789 3.99554H136.952V7.6316ZM22.3663 4.27681H17.7101V0.339412H31.2191V4.27681H26.5029V18.7406H22.3864V4.27681H22.3663ZM97.665 4.27681H89.172L91.909 0.339412H106.497V4.27681H101.781V18.7406H97.665V4.27681ZM12.8742 10.1226C12.2348 9.33915 11.3554 8.73648 10.2764 8.29454L7.99817 7.37047C7.61847 7.20974 7.25878 7.04903 6.93908 6.9285C6.61928 6.7879 6.33958 6.64726 6.09978 6.50663C5.85998 6.36603 5.68007 6.18523 5.56017 6.02452C5.44027 5.84372 5.38037 5.64282 5.38037 5.38169C5.38037 4.89955 5.56017 4.53795 5.93987 4.27681C6.31957 4.01564 6.85908 3.87504 7.51858 3.87504C8.19808 3.87504 8.83748 3.99554 9.41698 4.23661C10.0565 4.51788 10.736 4.99998 11.1955 5.36159L11.2756 5.40176L13.294 2.4889C13.294 2.4889 12.1748 1.42422 10.5961 0.781381C9.57688 0.379611 8.53778 0.178711 7.49858 0.178711C6.55938 0.178711 5.70008 0.319345 4.92068 0.600581C4.16138 0.861719 3.48188 1.26349 2.90238 1.74563C2.33698 2.2173 1.88008 2.80675 1.56348 3.47324C1.24378 4.13618 1.08388 4.83928 1.08388 5.58256C1.08388 6.24549 1.18378 6.84816 1.38358 7.37047C1.58348 7.89277 1.86318 8.37488 2.20298 8.75658C2.54268 9.15835 2.94238 9.49985 3.36198 9.80119C3.78168 10.1025 4.24127 10.3436 4.70087 10.5243L7.01897 11.5089L8.05818 11.9507C8.35788 12.0914 8.63768 12.2318 8.85748 12.3725C9.07728 12.5132 9.23717 12.6941 9.33707 12.8747C9.43697 13.0556 9.49697 13.2767 9.49697 13.5377C9.49697 14.0398 9.31708 14.4217 8.91738 14.7028C8.53778 15.0043 7.91828 15.1447 7.11888 15.1447C6.39948 15.1447 5.64008 14.9641 4.90078 14.6425C4.18128 14.3212 3.38198 13.7989 2.72248 13.2365L2.64258 13.1561L0.484375 16.2897L0.544275 16.35C1.42358 17.1537 2.44277 17.7764 3.54187 18.1781C4.70087 18.5999 5.87987 18.821 7.03897 18.821C8.09807 18.821 9.05728 18.6602 9.89668 18.359C10.736 18.0575 11.4554 17.6358 12.035 17.1336C12.6144 16.6314 13.0539 16.0287 13.3738 15.3457C13.6735 14.6626 13.8334 13.9393 13.8334 13.1963C13.8334 11.9507 13.5136 10.9062 12.8742 10.1226Z" fill="#11295A"/>
</g>
<defs>
<clipPath id="clip0_915_794">
<rect width="165" height="19" fill="white"/>
</clipPath>
</defs>
</svg>